<?xml version="1.0" encoding="utf-8"?>
<svg viewBox="106.7711 165.6126 360.5681 119.924" xmlns="http://www.w3.org/2000/svg">
  <defs>
    <clipPath clipPathUnits="userSpaceOnUse" id="clipPath26">
      <path d="M 0,595.28 H 841.89 V 0 H 0 Z" id="path24"/>
    </clipPath>
    <linearGradient x1="0" y1="0" x2="1" y2="0" gradientUnits="userSpaceOnUse" gradientTransform="matrix(75.951019,43.850342,43.850342,-75.951019,291.37891,275.15723)" spreadMethod="pad" id="linearGradient68">
      <stop style="stop-opacity:1;stop-color:#db1f26" offset="0" id="stop64"/>
      <stop style="stop-opacity:1;stop-color:#a51753" offset="1" id="stop66"/>
    </linearGradient>
    <clipPath clipPathUnits="userSpaceOnUse" id="clipPath78">
      <path d="M 0,595.28 H 841.89 V 0 H 0 Z" id="path76"/>
    </clipPath>
  </defs>
  <g id="g20" transform="matrix(1.3333330154418945, 0, 0, -1.3333330154418945, -274.2048645019531, 622.428466796875)">
    <g id="g22" clip-path="url(#clipPath26)">
      <g id="g28" transform="translate(397.6167,278.2471)">
        <path d="m 0,0 -6.55,18.896 c -0.149,0.45 -0.348,1.199 -0.348,1.85 0,1.749 1.398,3.448 3.648,3.448 1.899,0 3.149,-1.199 3.7,-2.949 L 4.549,7.646 8.748,21.196 c 0.55,1.799 1.95,3.049 3.899,3.049 h 0.451 c 1.949,0 3.349,-1.25 3.899,-3.049 l 4.249,-13.598 4.2,13.698 c 0.5,1.6 1.65,2.898 3.65,2.898 2.1,0 3.549,-1.599 3.549,-3.499 0,-0.5 -0.15,-1.199 -0.252,-1.549 L 25.645,0 c -0.801,-2.351 -2.349,-3.4 -4.199,-3.4 h -0.25 c -1.849,0 -3.4,1.049 -4.099,3.25 L 12.848,13.348 8.548,-0.15 C 7.849,-2.351 6.299,-3.4 4.449,-3.4 H 4.199 C 2.35,-3.4 0.799,-2.351 0,0" style="fill:#a5194a;fill-opacity:1;fill-rule:nonzero;stroke:none" id="path30"/>
      </g>
      <g id="g32" transform="translate(452.6641,288.5947)">
        <path d="m 0,0 v 0.1 c 0,3.95 -2.85,7.399 -7.049,7.399 -4.347,0 -6.947,-3.349 -6.947,-7.3 V 0.1 c 0,-3.951 2.85,-7.398 7.049,-7.398 C -2.6,-7.298 0,-3.948 0,0 m -21.496,0 v 0.1 c 0,7.699 6.199,13.947 14.549,13.947 C 1.35,14.047 7.5,7.898 7.5,0.199 V 0.1 c 0,-7.698 -6.199,-13.948 -14.549,-13.948 -8.297,0 -14.447,6.15 -14.447,13.848" style="fill:#a5194a;fill-opacity:1;fill-rule:nonzero;stroke:none" id="path34"/>
      </g>
      <g id="g36" transform="translate(464.0176,308.3408)">
        <path d="M 0,0 C 0,2.1 1.699,3.8 3.799,3.8 5.898,3.8 7.598,2.1 7.598,0 v -29.495 c 0,-2.1 -1.7,-3.799 -3.799,-3.799 -2.1,0 -3.799,1.699 -3.799,3.799 z" style="fill:#a5194a;fill-opacity:1;fill-rule:nonzero;stroke:none" id="path38"/>
      </g>
      <g id="g40" transform="translate(477.1152,308.3408)">
        <path d="M 0,0 C 0,2.1 1.701,3.8 3.801,3.8 5.9,3.8 7.6,2.1 7.6,0 v -29.495 c 0,-2.1 -1.7,-3.799 -3.799,-3.799 -2.1,0 -3.801,1.699 -3.801,3.799 z" style="fill:#a5194a;fill-opacity:1;fill-rule:nonzero;stroke:none" id="path42"/>
      </g>
      <g id="g44" transform="translate(510.0625,288.5947)">
        <path d="m 0,0 v 0.1 c 0,3.95 -2.85,7.399 -7.049,7.399 -4.347,0 -6.949,-3.349 -6.949,-7.3 V 0.1 c 0,-3.951 2.85,-7.398 7.049,-7.398 C -2.602,-7.298 0,-3.948 0,0 m -21.498,0 v 0.1 c 0,7.699 6.199,13.947 14.549,13.947 C 1.35,14.047 7.5,7.898 7.5,0.199 V 0.1 c 0,-7.698 -6.199,-13.948 -14.549,-13.948 -8.299,0 -14.449,6.15 -14.449,13.848" style="fill:#a5194a;fill-opacity:1;fill-rule:nonzero;stroke:none" id="path46"/>
      </g>
      <g id="g48" transform="translate(521.0645,308.3408)">
        <path d="M 0,0 C 0,2.1 1.699,3.8 3.799,3.8 5.898,3.8 7.602,2.1 7.602,0 v -16.598 l 9.496,8.999 c 1.101,1.05 2,1.7 3.349,1.7 2.051,0 3.35,-1.65 3.35,-3.399 0,-1.3 -0.701,-2.3 -1.75,-3.3 l -5.998,-5.149 7.148,-9.649 c 0.649,-0.898 0.949,-1.598 0.949,-2.448 0,-2.051 -1.648,-3.45 -3.55,-3.45 -1.498,0 -2.397,0.501 -3.297,1.751 l -6.649,9.147 -3.048,-2.749 v -4.35 c 0,-2.1 -1.704,-3.799 -3.803,-3.799 -2.1,0 -3.799,1.699 -3.799,3.799 z" style="fill:#a5194a;fill-opacity:1;fill-rule:nonzero;stroke:none" id="path50"/>
      </g>
    </g>
  </g>
  <g id="g52" transform="matrix(1.3333330154418945, 0, 0, -1.3333330154418945, -274.2048645019531, 622.428466796875)">
    <g id="g54">
      <g id="g60">
        <g id="g62">
          <path d="m 298.417,329.322 c -0.054,-0.057 -0.108,-0.111 -0.162,-0.167 v 0 c -0.747,-0.794 -1.215,-1.856 -1.215,-3.032 v 0 c 0,-2.075 1.434,-3.803 3.361,-4.285 v 0 c 0.074,-0.017 0.145,-0.039 0.219,-0.058 v 0 c 2.839,-0.753 5.394,-2.583 6.98,-5.328 v 0 l 18.918,-32.769 c 3.162,-5.472 1.284,-12.464 -4.185,-15.625 v 0 c -5.469,-3.16 -12.466,-1.285 -15.624,4.186 v 0 l -12.779,22.134 -0.118,0.203 c -0.797,1.164 -2.134,1.928 -3.651,1.928 v 0 c -2.446,0 -4.429,-1.982 -4.429,-4.428 v 0 c 0,-0.281 0.033,-0.553 0.082,-0.817 v 0 c 0.004,-0.028 0.007,-0.06 0.012,-0.089 v 0 c 3.135,-21.773 21.862,-38.506 44.503,-38.506 v 0 c 24.836,0 44.971,20.134 44.971,44.97 v 0 c 0,0.864 -0.029,1.722 -0.077,2.573 v 0 c 0,0.034 0.009,0.063 0.009,0.095 v 0 c 0,0.303 -0.032,0.601 -0.089,0.886 v 0 c -0.412,2.031 -2.206,3.563 -4.358,3.563 v 0 c -0.853,0 -1.64,-0.252 -2.318,-0.667 v 0 c -0.188,-0.142 -0.368,-0.293 -0.567,-0.422 v 0 c -1.786,-1.16 -3.915,-1.836 -6.204,-1.836 v 0 c -6.317,0 -11.438,5.119 -11.438,11.437 v 0 c 0,5.098 3.338,9.413 7.945,10.89 v 0 c 0.062,0.022 0.125,0.041 0.188,0.058 v 0 c 1.675,0.633 2.873,2.239 2.873,4.134 v 0 c 0,1.152 -0.451,2.191 -1.171,2.978 v 0 c -0.267,0.236 -0.529,0.476 -0.801,0.705 v 0 c -7.82,6.602 -17.928,10.579 -28.963,10.579 v 0 c -12.477,0 -23.785,-5.069 -31.912,-13.29 m 40.615,-57.078 -18.922,32.768 c -3.16,5.472 -1.282,12.466 4.185,15.625 v 0 c 5.471,3.159 12.466,1.284 15.624,-4.185 v 0 l 18.923,-32.769 c 3.158,-5.472 1.285,-12.464 -4.187,-15.625 v 0 c -1.802,-1.041 -3.77,-1.535 -5.711,-1.535 v 0 c -3.953,-0.001 -7.796,2.051 -9.912,5.721" style="fill:url(#linearGradient68);stroke:none" id="path70"/>
        </g>
      </g>
    </g>
  </g>
  <g id="g72" transform="matrix(1.3333330154418945, 0, 0, -1.3333330154418945, -274.2048645019531, 622.428466796875)">
    <g id="g74" clip-path="url(#clipPath78)">
      <g id="g80" transform="translate(552.2402,308.2002)">
        <path d="M 0,0 C 0.426,0 0.664,0.215 0.664,0.522 0.664,0.856 0.426,1.045 0,1.045 H -0.785 V 0 Z m -2.02,1.473 c 0,0.333 0.286,0.617 0.618,0.617 H 0.07 c 1.092,0 1.828,-0.474 1.828,-1.495 0,-0.617 -0.306,-1.069 -0.806,-1.306 l 0.545,-0.642 c 0.121,-0.142 0.166,-0.26 0.166,-0.426 0,-0.332 -0.283,-0.594 -0.617,-0.594 -0.213,0 -0.356,0.095 -0.473,0.237 l -0.928,1.163 h -0.57 v -0.783 c 0,-0.334 -0.285,-0.617 -0.617,-0.617 -0.332,0 -0.618,0.283 -0.618,0.617 z m 5.215,-1.639 v 0.022 c 0,1.882 -1.461,3.433 -3.41,3.433 -1.928,0 -3.41,-1.572 -3.41,-3.455 v -0.021 c 0,-1.881 1.461,-3.433 3.41,-3.433 1.928,0 3.41,1.572 3.41,3.454 m -7.541,-0.022 v 0.022 c 0,2.256 1.828,4.155 4.131,4.155 2.328,0 4.133,-1.875 4.133,-4.131 v -0.024 c 0,-2.256 -1.828,-4.155 -4.133,-4.155 -2.328,0 -4.131,1.877 -4.131,4.133" style="fill:#a5194a;fill-opacity:1;fill-rule:nonzero;stroke:none" id="path82"/>
      </g>
    </g>
  </g>
</svg>