<?xml version="1.0" encoding="utf-8"?>
<svg viewBox="16.1766 -9.7096 360.5684 119.9253" xmlns="http://www.w3.org/2000/svg">
  <g id="g8" transform="matrix(1.3333330154418945, 0, 0, -1.3333330154418945, -140.0259246826172, 635.2388916015625)">
    <g id="g40" transform="matrix(1, 0, 0, 1, -168.579865, 141.098907)">
      <g id="g42" clip-path="url(#clipPath46)">
        <g id="g48" transform="translate(397.6167,278.2471)">
          <path d="m 0,0 -6.55,18.896 c -0.149,0.45 -0.348,1.199 -0.348,1.85 0,1.749 1.398,3.448 3.648,3.448 1.899,0 3.149,-1.199 3.7,-2.949 L 4.549,7.646 8.748,21.196 c 0.55,1.799 1.95,3.049 3.899,3.049 h 0.451 c 1.949,0 3.349,-1.25 3.899,-3.049 l 4.249,-13.598 4.2,13.698 c 0.5,1.6 1.65,2.898 3.65,2.898 2.1,0 3.549,-1.599 3.549,-3.499 0,-0.5 -0.15,-1.199 -0.252,-1.549 L 25.645,0 c -0.801,-2.351 -2.349,-3.4 -4.199,-3.4 h -0.25 c -1.849,0 -3.4,1.049 -4.099,3.25 L 12.848,13.348 8.548,-0.15 C 7.849,-2.351 6.299,-3.4 4.449,-3.4 H 4.199 C 2.35,-3.4 0.799,-2.351 0,0" style="fill:#ffffff;fill-opacity:1;fill-rule:nonzero;stroke:none" id="path50"/>
        </g>
        <g id="g52" transform="translate(452.6641,288.5947)">
          <path d="m 0,0 v 0.1 c 0,3.95 -2.85,7.399 -7.049,7.399 -4.347,0 -6.947,-3.349 -6.947,-7.3 V 0.1 c 0,-3.951 2.85,-7.398 7.049,-7.398 C -2.6,-7.298 0,-3.948 0,0 m -21.496,0 v 0.1 c 0,7.699 6.199,13.947 14.549,13.947 C 1.35,14.047 7.5,7.898 7.5,0.199 V 0.1 c 0,-7.698 -6.199,-13.948 -14.549,-13.948 -8.297,0 -14.447,6.15 -14.447,13.848" style="fill:#ffffff;fill-opacity:1;fill-rule:nonzero;stroke:none" id="path54"/>
        </g>
        <g id="g56" transform="translate(464.0176,308.3408)">
          <path d="M 0,0 C 0,2.1 1.699,3.8 3.799,3.8 5.898,3.8 7.598,2.1 7.598,0 v -29.495 c 0,-2.1 -1.7,-3.799 -3.799,-3.799 -2.1,0 -3.799,1.699 -3.799,3.799 z" style="fill:#ffffff;fill-opacity:1;fill-rule:nonzero;stroke:none" id="path58"/>
        </g>
        <g id="g60" transform="translate(477.1152,308.3408)">
          <path d="M 0,0 C 0,2.1 1.701,3.8 3.801,3.8 5.9,3.8 7.6,2.1 7.6,0 v -29.495 c 0,-2.1 -1.7,-3.799 -3.799,-3.799 -2.1,0 -3.801,1.699 -3.801,3.799 z" style="fill:#ffffff;fill-opacity:1;fill-rule:nonzero;stroke:none" id="path62"/>
        </g>
        <g id="g64" transform="translate(510.0625,288.5947)">
          <path d="m 0,0 v 0.1 c 0,3.95 -2.85,7.399 -7.049,7.399 -4.347,0 -6.949,-3.349 -6.949,-7.3 V 0.1 c 0,-3.951 2.85,-7.398 7.049,-7.398 C -2.602,-7.298 0,-3.948 0,0 m -21.498,0 v 0.1 c 0,7.699 6.199,13.947 14.549,13.947 C 1.35,14.047 7.5,7.898 7.5,0.199 V 0.1 c 0,-7.698 -6.199,-13.948 -14.549,-13.948 -8.299,0 -14.449,6.15 -14.449,13.848" style="fill:#ffffff;fill-opacity:1;fill-rule:nonzero;stroke:none" id="path66"/>
        </g>
        <g id="g68" transform="translate(521.0645,308.3408)">
          <path d="M 0,0 C 0,2.1 1.699,3.8 3.799,3.8 5.898,3.8 7.602,2.1 7.602,0 v -16.598 l 9.496,8.999 c 1.101,1.05 2,1.7 3.349,1.7 2.051,0 3.35,-1.65 3.35,-3.399 0,-1.3 -0.701,-2.3 -1.75,-3.3 l -5.998,-5.149 7.148,-9.649 c 0.649,-0.898 0.949,-1.598 0.949,-2.448 0,-2.051 -1.648,-3.45 -3.55,-3.45 -1.498,0 -2.397,0.501 -3.297,1.751 l -6.649,9.147 -3.048,-2.749 v -4.35 c 0,-2.1 -1.704,-3.799 -3.803,-3.799 -2.1,0 -3.799,1.699 -3.799,3.799 z" style="fill:#ffffff;fill-opacity:1;fill-rule:nonzero;stroke:none" id="path70"/>
        </g>
        <g id="g72" transform="translate(354.6548,268.0576)">
          <path d="m 0,0 c -5.473,-3.16 -12.468,-1.285 -15.623,4.187 l -18.922,32.767 c -3.159,5.472 -1.282,12.466 4.186,15.625 5.47,3.159 12.465,1.284 15.624,-4.184 L 4.187,15.625 C 7.345,10.153 5.472,3.161 0,0 m 20.567,32.154 c 0.001,0.034 0.01,0.064 0.01,0.096 0,0.303 -0.032,0.601 -0.089,0.886 -0.412,2.031 -2.206,3.562 -4.358,3.562 -0.853,0 -1.64,-0.252 -2.317,-0.667 -0.189,-0.141 -0.369,-0.293 -0.568,-0.422 -1.786,-1.16 -3.915,-1.836 -6.204,-1.836 -6.316,0 -11.437,5.12 -11.437,11.438 0,5.098 3.337,9.412 7.944,10.889 0.062,0.022 0.125,0.042 0.188,0.058 1.675,0.633 2.872,2.239 2.872,4.134 0,1.152 -0.45,2.191 -1.171,2.979 -0.265,0.236 -0.528,0.475 -0.8,0.705 -7.821,6.601 -17.928,10.579 -28.963,10.579 -12.477,0 -23.785,-5.07 -31.911,-13.291 -0.055,-0.057 -0.109,-0.111 -0.163,-0.166 -0.747,-0.794 -1.214,-1.856 -1.214,-3.033 0,-2.075 1.433,-3.803 3.36,-4.285 0.074,-0.016 0.146,-0.039 0.219,-0.058 2.84,-0.752 5.394,-2.583 6.98,-5.327 l 18.918,-32.77 C -24.975,10.153 -26.854,3.161 -32.321,0 c -5.47,-3.16 -12.466,-1.285 -15.624,4.187 l -12.78,22.133 -0.118,0.203 c -0.797,1.164 -2.134,1.928 -3.651,1.928 -2.446,0 -4.429,-1.982 -4.429,-4.428 0,-0.281 0.033,-0.552 0.082,-0.816 0.005,-0.029 0.007,-0.061 0.013,-0.09 3.135,-21.772 21.861,-38.506 44.502,-38.506 24.837,0 44.972,20.135 44.972,44.97 0,0.864 -0.03,1.722 -0.079,2.573" style="fill:#ffffff;fill-opacity:1;fill-rule:nonzero;stroke:none" id="path74"/>
        </g>
        <g id="g76" transform="translate(552.2402,308.2002)">
          <path d="M 0,0 C 0.426,0 0.664,0.215 0.664,0.522 0.664,0.856 0.426,1.045 0,1.045 H -0.785 V 0 Z m -2.02,1.473 c 0,0.333 0.286,0.617 0.618,0.617 H 0.07 c 1.092,0 1.828,-0.474 1.828,-1.495 0,-0.617 -0.306,-1.069 -0.806,-1.306 l 0.545,-0.642 c 0.121,-0.142 0.166,-0.26 0.166,-0.426 0,-0.332 -0.283,-0.594 -0.617,-0.594 -0.213,0 -0.356,0.095 -0.473,0.237 l -0.928,1.163 h -0.57 v -0.783 c 0,-0.334 -0.285,-0.617 -0.617,-0.617 -0.332,0 -0.618,0.283 -0.618,0.617 z m 5.215,-1.639 v 0.022 c 0,1.882 -1.461,3.433 -3.41,3.433 -1.928,0 -3.41,-1.572 -3.41,-3.455 v -0.021 c 0,-1.881 1.461,-3.433 3.41,-3.433 1.928,0 3.41,1.572 3.41,3.454 m -7.541,-0.022 v 0.022 c 0,2.256 1.828,4.155 4.131,4.155 2.328,0 4.133,-1.875 4.133,-4.131 v -0.024 c 0,-2.256 -1.828,-4.155 -4.133,-4.155 -2.328,0 -4.131,1.877 -4.131,4.133" style="fill:#ffffff;fill-opacity:1;fill-rule:nonzero;stroke:none" id="path78"/>
        </g>
      </g>
    </g>
  </g>
</svg>