<?xml version="1.0" encoding="utf-8"?>
<svg viewBox="36.0784 113.855 238.8479 239.8466" xmlns="http://www.w3.org/2000/svg">
  <defs>
    <clipPath clipPathUnits="userSpaceOnUse" id="clipPath46">
      <path d="M 0,595.28 H 841.89 V 0 H 0 Z" id="path44"/>
    </clipPath>
  </defs>
  <g id="g40" transform="matrix(1.3333330154418945, 0, 0, -1.3333330154418945, -405.7569869975632, 630.6316600033734)">
    <g id="g42" clip-path="url(#clipPath46)">
      <g id="g48" transform="translate(469.2236,238.4746)">
        <path d="m 0,0 c -10.945,-6.32 -24.937,-2.57 -31.246,8.371 l -37.845,65.536 c -6.318,10.944 -2.564,24.932 8.371,31.25 10.942,6.319 24.931,2.569 31.247,-8.369 L 8.371,31.25 C 14.688,20.305 10.941,6.32 0,0 m 41.133,64.308 c 0.004,0.068 0.019,0.127 0.019,0.191 0,0.605 -0.062,1.201 -0.175,1.772 -0.825,4.062 -4.414,7.125 -8.719,7.125 -1.703,0 -3.278,-0.504 -4.633,-1.334 -0.379,-0.284 -0.738,-0.586 -1.137,-0.844 -3.57,-2.321 -7.828,-3.672 -12.406,-3.672 -12.633,0 -22.875,10.238 -22.875,22.875 0,10.195 6.676,18.824 15.887,21.777 0.125,0.045 0.25,0.084 0.379,0.117 3.347,1.266 5.742,4.479 5.742,8.268 0,2.305 -0.899,4.383 -2.34,5.957 -0.531,0.473 -1.059,0.951 -1.602,1.41 -15.64,13.203 -35.855,21.158 -57.926,21.158 -24.953,0 -47.571,-10.138 -63.823,-26.582 -0.109,-0.113 -0.216,-0.22 -0.326,-0.332 -1.494,-1.588 -2.427,-3.711 -2.427,-6.064 0,-4.151 2.867,-7.608 6.72,-8.57 0.149,-0.034 0.291,-0.079 0.438,-0.118 5.679,-1.504 10.789,-5.166 13.961,-10.654 L -56.274,31.25 C -49.95,20.305 -53.708,6.32 -64.644,0 -75.583,-6.32 -89.575,-2.57 -95.892,8.371 l -25.558,44.27 -0.237,0.406 c -1.593,2.328 -4.267,3.854 -7.302,3.854 -4.893,0 -8.858,-3.963 -8.858,-8.854 0,-0.563 0.067,-1.106 0.164,-1.633 0.01,-0.059 0.014,-0.121 0.026,-0.18 6.269,-43.546 43.722,-77.011 89.004,-77.011 49.673,0 89.942,40.269 89.942,89.938 0,1.729 -0.059,3.443 -0.156,5.147" style="fill:#ffffff;fill-opacity:1;fill-rule:nonzero;stroke:none" id="path50"/>
      </g>
    </g>
  </g>
</svg>