<?xml version="1.0" encoding="utf-8"?>
<svg viewBox="178.1593 115.6547 238.8466 239.848" xmlns="http://www.w3.org/2000/svg">
  <defs>
    <linearGradient x1="0" y1="0" x2="1" y2="0" gradientUnits="userSpaceOnUse" gradientTransform="matrix(151.90266,87.70105,87.70105,-151.90266,342.6709,252.67285)" spreadMethod="pad" id="linearGradient36">
      <stop style="stop-opacity:1;stop-color:#db1f26" offset="0" id="stop32"/>
      <stop style="stop-opacity:1;stop-color:#a51753" offset="1" id="stop34"/>
    </linearGradient>
  </defs>
  <g id="g20" transform="matrix(1.3333330154418945, 0, 0, -1.3333330154418945, -263.6766357421875, 632.4320068359375)">
    <g id="g22">
      <g id="g28">
        <g id="g30">
          <path d="m 356.748,361.001 c -0.11,-0.114 -0.217,-0.221 -0.326,-0.332 v 0 c -1.494,-1.588 -2.428,-3.711 -2.428,-6.065 v 0 c 0,-4.15 2.868,-7.607 6.721,-8.57 v 0 c 0.148,-0.033 0.291,-0.078 0.437,-0.117 v 0 c 5.68,-1.504 10.789,-5.166 13.962,-10.654 v 0 l 37.835,-65.538 c 6.324,-10.945 2.567,-24.93 -8.369,-31.25 v 0 c -10.94,-6.321 -24.931,-2.571 -31.248,8.371 v 0 l -25.559,44.269 -0.236,0.407 c -1.593,2.328 -4.267,3.854 -7.303,3.854 v 0 c -4.892,0 -8.857,-3.964 -8.857,-8.855 v 0 c 0,-0.562 0.066,-1.105 0.164,-1.632 v 0 c 0.01,-0.059 0.014,-0.122 0.025,-0.18 v 0 c 6.27,-43.547 43.723,-77.012 89.004,-77.012 v 0 c 49.673,0 89.942,40.27 89.942,89.938 v 0 c 0,1.729 -0.058,3.444 -0.155,5.148 v 0 c 0.003,0.068 0.019,0.126 0.019,0.19 v 0 c 0,0.606 -0.062,1.202 -0.176,1.772 v 0 c -0.824,4.063 -4.414,7.125 -8.718,7.125 v 0 c -1.704,0 -3.278,-0.504 -4.633,-1.334 v 0 c -0.379,-0.283 -0.738,-0.586 -1.137,-0.843 v 0 c -3.57,-2.321 -7.828,-3.672 -12.407,-3.672 v 0 c -12.632,0 -22.874,10.238 -22.874,22.874 v 0 c 0,10.196 6.675,18.824 15.887,21.777 v 0 c 0.124,0.045 0.249,0.085 0.379,0.118 v 0 c 3.347,1.266 5.742,4.479 5.742,8.268 v 0 c 0,2.305 -0.899,4.383 -2.34,5.957 v 0 c -0.531,0.472 -1.059,0.951 -1.602,1.41 v 0 c -15.64,13.203 -35.855,21.158 -57.927,21.158 v 0 c -24.953,0 -47.57,-10.138 -63.822,-26.582 m 81.23,-114.155 -37.845,65.536 c -6.318,10.943 -2.564,24.932 8.371,31.25 v 0 c 10.941,6.319 24.931,2.568 31.247,-8.369 v 0 l 37.844,-65.538 c 6.316,-10.945 2.57,-24.93 -8.371,-31.25 v 0 c -3.604,-2.082 -7.54,-3.071 -11.422,-3.071 v 0 c -7.907,0 -15.593,4.103 -19.824,11.442" style="fill:url(#linearGradient36);stroke:none" id="path38"/>
        </g>
      </g>
    </g>
  </g>
</svg>